<?xml version="1.0" encoding="UTF-8"?>
<svg version="1.1" xmlns="http://www.w3.org/2000/svg" width="3441" height="3441">
<path d="M0 0 C1.29389648 0.12810059 2.58779297 0.25620117 3.92089844 0.38818359 C55.83146318 5.59011993 107.08069738 16.0242756 156.49511719 32.81054688 C159.84799474 33.94841393 163.20799873 35.06226074 166.5703125 36.171875 C191.40405586 44.46116282 215.59882384 54.52551954 239.26220703 65.70898438 C241.95918599 66.98075401 244.6640745 68.23414324 247.37109375 69.484375 C259.24073303 75.00253308 270.76146744 81.0443737 282.18652344 87.42919922 C285.02804966 89.01566049 287.87699302 90.58819701 290.7265625 92.16015625 C304.15018176 99.60914044 317.15321589 107.59848781 330 116 C331.05888428 116.69005127 331.05888428 116.69005127 332.13916016 117.39404297 C353.96712626 131.65267727 375.19994141 146.95005886 395.28076172 163.58056641 C397.69305718 165.57220029 400.12995367 167.53318419 402.5625 169.5 C413.51996568 178.48610754 424.09100618 187.89064722 434.44677734 197.56005859 C435.9285503 198.93376134 437.42679138 200.28963653 438.92578125 201.64453125 C446.28678383 208.29960161 453.35069723 215.2432816 460.375 222.25 C460.8494455 222.7218573 461.32389099 223.1937146 461.81271362 223.67987061 C466.85747903 228.7029031 471.7826624 233.76758726 476.41748047 239.17236328 C478.98228379 242.13443018 481.68691147 244.96278068 484.375 247.8125 C489.00146674 252.75614612 493.39644454 257.8090206 497.62890625 263.09765625 C500.48625534 266.59520217 503.45918907 269.98056038 506.4375 273.375 C512.26401811 280.04065187 517.67808311 286.92644499 523 294 C523.65484375 294.81855469 524.3096875 295.63710937 524.984375 296.48046875 C525.54640625 297.18816406 526.1084375 297.89585937 526.6875 298.625 C527.40486328 299.51058594 527.40486328 299.51058594 528.13671875 300.4140625 C528.56404297 301.19910156 528.56404297 301.19910156 529 302 C527.88024077 305.35927769 527.26397398 305.80914756 524.484375 307.79296875 C523.73808838 308.33284424 522.99180176 308.87271973 522.22290039 309.42895508 C521.40684326 310.0092749 520.59078613 310.58959473 519.75 311.1875 C518.01314059 312.44367937 516.27750861 313.70155721 514.54296875 314.9609375 C513.63466309 315.61932617 512.72635742 316.27771484 511.79052734 316.95605469 C507.16537402 320.34378729 502.61450499 323.82743555 498.0625 327.3125 C496.30601343 328.65367707 494.54950374 329.99482386 492.79296875 331.3359375 C490.51427683 333.07733313 488.23596226 334.81920288 485.95947266 336.56347656 C484.26745422 337.85855759 482.57188727 339.14880973 480.875 340.4375 C479.54082031 341.45650391 479.54082031 341.45650391 478.1796875 342.49609375 C476 344 476 344 473 345 C472.50113281 344.319375 472.00226563 343.63875 471.48828125 342.9375 C459.0543408 326.15056424 445.67846377 310.01453181 431.4765625 294.6953125 C429.47653648 292.51862803 427.53801694 290.31477118 425.625 288.0625 C420.87980401 282.58018618 415.63605955 277.55928975 410.48217773 272.46582031 C406.84375074 268.86754726 403.24047596 265.23447999 399.63671875 261.6015625 C397.98704484 259.94264302 396.33730342 258.28379068 394.6875 256.625 C393.46256836 255.3875 393.46256836 255.3875 392.21289062 254.125 C387.30711951 249.19968398 382.27472817 244.52500183 377 240 C375.39231627 238.54554483 373.78760285 237.08779105 372.1875 235.625 C367.92254692 231.78071755 363.5513915 228.10473095 359.0859375 224.49609375 C356.85060183 222.68801844 354.62811795 220.86887237 352.4140625 219.03515625 C342.22551998 210.62579153 331.72820897 202.70692482 321 195 C320.17951172 194.41041504 319.35902344 193.82083008 318.51367188 193.21337891 C248.95310099 143.43596491 170.78519468 107.57918067 87.99298096 86.50915527 C86.15909078 86.04064359 84.32724323 85.56415561 82.49560547 85.08691406 C-1.10464547 63.33829661 -91.9034903 61.34465448 -185.85400391 79.52929688 C-188.01733621 80.00380253 -190.18507528 80.44965 -192.35546875 80.890625 C-286.03217347 100.27381376 -378.94966771 147.18552424 -480.90234375 225.375 C-483.80478373 227.85116957 -486.77240584 230.23961164 -489.75 232.625 C-493.98786525 236.06941878 -497.86421539 239.71767622 -501.63671875 243.6640625 C-503.61569365 245.62014017 -505.62871583 247.43137015 -507.734375 249.24609375 C-512.20354949 253.12356886 -516.3914205 257.2437721 -520.5625 261.4375 C-521.27857422 262.14970703 -521.99464844 262.86191406 -522.73242188 263.59570312 C-526.79501859 267.6656931 -530.68025636 271.83328858 -534.43432617 276.18920898 C-536.52925257 278.61211077 -538.7016897 280.9599099 -540.875 283.3125 C-545.79577302 288.7149752 -550.4270049 294.30237581 -555 300 C-555.92389449 301.13198786 -556.8484029 302.26347487 -557.7734375 303.39453125 C-613.0856465 371.3374491 -650.1057557 454.85071012 -664.52539062 541.18896484 C-664.94588409 543.67948016 -665.39421769 546.16205437 -665.859375 548.64453125 C-680.44007989 627.91976039 -674.88877475 716.03389344 -649.78051758 797.51928711 C-648.86056555 800.44316341 -647.96370277 803.37378105 -647.06640625 806.3046875 C-637.29609812 838.05127597 -625.29578284 868.31508157 -610.47753906 898.02587891 C-609.25282005 900.49110147 -608.05070114 902.96407516 -606.8671875 905.44921875 C-588.37766778 943.99068382 -563.33821825 980.23248307 -536 1013 C-535.50870605 1013.59039063 -535.01741211 1014.18078125 -534.51123047 1014.7890625 C-528.49679214 1022.00234517 -522.32825321 1029.05968775 -516 1036 C-514.89591797 1037.24330078 -514.89591797 1037.24330078 -513.76953125 1038.51171875 C-507.34581579 1045.67074027 -500.60400038 1052.50397691 -493.8125 1059.3125 C-493.33914215 1059.78844604 -492.8657843 1060.26439209 -492.37808228 1060.75476074 C-486.76072068 1066.39631572 -481.04754884 1071.8242012 -475 1077 C-473.39231627 1078.45445517 -471.78760285 1079.91220895 -470.1875 1081.375 C-435.9054566 1112.23402545 -396.6886309 1137.50892773 -356 1159 C-355.10990234 1159.47373047 -354.21980469 1159.94746094 -353.30273438 1160.43554688 C-288.04235153 1194.9350531 -214.56946047 1215.14006468 -141.20370483 1221.79788208 C-139.60780535 1221.94425372 -138.01233293 1222.09530663 -136.41714478 1222.24923706 C-119.15729173 1223.89738735 -102.02032425 1224.36153671 -84.6875 1224.3125 C-83.37738953 1224.31100952 -82.06727905 1224.30951904 -80.71746826 1224.3079834 C-59.66458265 1224.27367594 -38.90216989 1223.51745275 -18 1221 C-17.32831787 1220.92031982 -16.65663574 1220.84063965 -15.96459961 1220.75854492 C-6.62216984 1219.64816963 2.69433416 1218.38688109 12 1217 C12.87736816 1216.87125488 13.75473633 1216.74250977 14.65869141 1216.60986328 C26.62455905 1214.82927183 38.41887861 1212.3000217 50.21386719 1209.62646484 C52.71495542 1209.06409257 55.21950311 1208.52322704 57.7265625 1207.98828125 C103.95265209 1197.85102343 148.94542329 1180.85478863 191.41015625 1160.13183594 C195.80245286 1158 195.80245286 1158 198 1158 C198.42128174 1158.8504187 198.42128174 1158.8504187 198.85107422 1159.71801758 C204.20635675 1170.51439751 209.62358904 1181.26677707 215.27636719 1191.91064453 C220.01298907 1200.85865039 224.51008083 1209.9263209 229 1219 C201.82966894 1240.50184185 159.50894254 1251.36136511 126.93017578 1261.73535156 C123.68234516 1262.77310805 120.45117597 1263.85473233 117.2225647 1264.9506073 C109.59055503 1267.53652293 101.91299417 1269.8093194 94.125 1271.875 C93.1800618 1272.12595932 93.1800618 1272.12595932 92.21603394 1272.38198853 C58.64550319 1281.25357871 24.48850712 1287.0805655 -10 1291 C-10.84981445 1291.09909668 -11.69962891 1291.19819336 -12.57519531 1291.30029297 C-15.00769807 1291.58257754 -17.44100191 1291.85593904 -19.875 1292.125 C-20.53854492 1292.20065186 -21.20208984 1292.27630371 -21.88574219 1292.35424805 C-36.09367589 1293.85616173 -50.38535205 1294.16806431 -64.66015625 1294.203125 C-65.46299986 1294.20595238 -66.26584347 1294.20877975 -67.09301567 1294.21169281 C-71.35213397 1294.22652845 -75.61121985 1294.23585284 -79.87036133 1294.24023438 C-83.30504149 1294.2445885 -86.73946614 1294.25838388 -90.17407227 1294.28125 C-112.97866947 1294.42979322 -135.33335626 1293.57376345 -158 1291 C-159.46537704 1290.83930023 -159.46537704 1290.83930023 -160.96035767 1290.675354 C-166.35842895 1290.08089544 -171.7435033 1289.41628058 -177.125 1288.6875 C-177.90562805 1288.58295502 -178.6862561 1288.47841003 -179.49053955 1288.37069702 C-242.85904231 1279.81954287 -305.22197472 1261.42517923 -363 1234 C-364.99085088 1233.07023854 -366.98173868 1232.14055615 -368.97265625 1231.2109375 C-382.93799434 1224.64381404 -396.57942109 1217.61754798 -410 1210 C-410.8765625 1209.5045166 -411.753125 1209.0090332 -412.65625 1208.49853516 C-445.34142672 1189.9148492 -476.56702161 1168.0073858 -505.07421875 1143.4921875 C-507.75779581 1141.20631011 -510.49038526 1139.00529732 -513.25 1136.8125 C-527.41416184 1125.19628229 -540.17351431 1111.92434555 -553.125 1099 C-553.85527405 1098.27240479 -554.5855481 1097.54480957 -555.33795166 1096.79516602 C-557.46008397 1094.67893133 -559.57833283 1092.55888795 -561.6953125 1090.4375 C-562.32711426 1089.80767212 -562.95891602 1089.17784424 -563.60986328 1088.52893066 C-567.93632761 1084.18031622 -572.00504221 1079.65363986 -576 1075 C-576.95007774 1073.90586508 -577.90051988 1072.81204632 -578.8515625 1071.71875 C-636.67784746 1004.76199899 -679.6735334 928.14911474 -709.00830078 844.81689453 C-709.62268776 843.07174509 -710.24023341 841.32769993 -710.86279297 839.58544922 C-715.44398541 826.73714513 -718.81180723 813.61702157 -722.12792969 800.39306641 C-722.71110269 798.1240467 -723.31610967 795.86053108 -723.94238281 793.60302734 C-727.01942729 782.50771017 -729.30468887 771.29819266 -731.5 760 C-731.69764954 758.98500427 -731.89529907 757.97000854 -732.09893799 756.92425537 C-735.44080597 739.66803359 -738.28466819 722.50369288 -740 705 C-740.10797913 703.9349826 -740.10797913 703.9349826 -740.21813965 702.84844971 C-742.37241454 681.56553909 -743.27013886 660.39169648 -743.25 639 C-743.24931519 637.97466156 -743.24863037 636.94932312 -743.2479248 635.89291382 C-743.20152505 614.90609581 -742.63098655 593.93794508 -740.375 573.0625 C-740.29207703 572.28049225 -740.20915405 571.4984845 -740.12371826 570.69277954 C-737.20329317 543.52509629 -732.70906503 516.36391254 -725.75927734 489.92675781 C-724.95884657 486.8413674 -724.20517796 483.7468986 -723.45703125 480.6484375 C-705.92087332 409.05659565 -672.96220989 340.06717431 -629 281 C-628.19117871 279.90381369 -627.38256657 278.807473 -626.57421875 277.7109375 C-615.17311335 262.360959 -603.12946461 247.62979204 -590.25512695 233.49047852 C-588.87283187 231.96392313 -587.49891183 230.42966696 -586.13964844 228.88256836 C-579.69139469 221.57428077 -572.84360939 214.69125412 -565.94311523 207.81274414 C-563.93422136 205.80923014 -561.93075611 203.80039848 -559.92773438 201.79101562 C-553.78777679 195.64786909 -547.64700881 189.59951284 -541 184 C-539.39231627 182.54554483 -537.78760285 181.08779105 -536.1875 179.625 C-531.92254692 175.78071755 -527.5513915 172.10473095 -523.0859375 168.49609375 C-520.85060183 166.68801844 -518.62811795 164.86887237 -516.4140625 163.03515625 C-493.28848909 143.94649529 -468.58015869 126.632588 -443 111 C-442.04367676 110.4136377 -441.08735352 109.82727539 -440.10205078 109.22314453 C-426.50947674 100.91092086 -412.78260108 92.92241912 -398.71386719 85.44287109 C-396.90502882 84.48117312 -395.09837782 83.51534961 -393.29394531 82.54541016 C-320.52144871 43.44552269 -240.3414426 14.31507807 0 0 Z " fill="#1F82CC" transform="translate(1761,1282)"/>
<path d="M0 0 C1.2494018 0.00020016 1.2494018 0.00020016 2.52404404 0.00040436 C27.88749418 0.01179275 53.10982863 0.45818259 78.375 2.875 C79.25264008 2.95825531 80.13028015 3.04151062 81.03451538 3.12728882 C134.83659386 8.31313963 189.45325314 17.79131166 240.98779297 34.35131836 C243.86935186 35.24824194 246.76363745 36.09374597 249.66299438 36.93107605 C259.95400484 39.90881018 270.11257657 43.22525404 280.25 46.6875 C281.13085266 46.98791199 282.01170532 47.28832397 282.91925049 47.59783936 C338.88264364 66.75295988 393.8241693 91.74593818 444.55078125 122.25561523 C447.14135755 123.80984686 449.73813289 125.35156093 452.33984375 126.88696289 C463.45782275 133.47059482 474.32836534 140.35057174 485.05761719 147.54956055 C487.50311089 149.18958626 489.95428578 150.82084018 492.40625 152.45117188 C507.57635925 162.57160513 522.36119171 173.20992299 536.875 184.25 C538.38900391 185.39662109 538.38900391 185.39662109 539.93359375 186.56640625 C552.69348651 196.27360833 565.07446142 206.45633541 577.25976562 216.87304688 C578.92334543 218.29121346 580.59395876 219.70075317 582.265625 221.109375 C589.14228203 226.92540494 595.82867113 232.90421289 602.37451172 239.09106445 C605.74735866 242.27832413 609.16317157 245.40242069 612.6328125 248.484375 C618.29221392 253.56052694 623.65009086 258.9137504 629 264.3125 C629.96590681 265.28344096 630.93205162 266.25414523 631.8984375 267.22460938 C634.22629387 269.56410502 636.55176105 271.90592052 638.875 274.25 C637.36589988 277.79120058 635.30380686 280.06604365 632.5859375 282.76953125 C631.72613281 283.62740234 630.86632813 284.48527344 629.98046875 285.36914062 C629.07941406 286.25794922 628.17835937 287.14675781 627.25 288.0625 C626.37214844 288.93970703 625.49429688 289.81691406 624.58984375 290.72070312 C620.14846341 295.13238627 615.63595032 299.37741985 610.88916016 303.45629883 C606.88241036 307.02449165 603.1474339 310.87512991 599.375 314.6875 C598.55257812 315.51443359 597.73015625 316.34136719 596.8828125 317.19335938 C594.87787887 319.20994959 592.87533747 321.22885236 590.875 323.25 C587.629387 321.82925676 585.5123841 320.11237319 583.046875 317.58203125 C582.32886719 316.85306641 581.61085938 316.12410156 580.87109375 315.37304688 C580.12988281 314.61056641 579.38867188 313.84808594 578.625 313.0625 C573.78971896 308.11127528 568.93463684 303.29791683 563.65917969 298.81323242 C561.81457079 297.19705416 560.09120205 295.50118983 558.375 293.75 C555.38627663 290.71405075 552.25793521 287.90491341 549.03125 285.125 C546.67537042 283.07640906 544.3699254 280.97796998 542.0625 278.875 C537.74725424 274.98075382 533.30408245 271.28345276 528.78515625 267.62890625 C526.20616035 265.52070691 523.6659932 263.37725313 521.13574219 261.21142578 C514.8463681 255.83260287 508.40967526 250.68543977 501.80078125 245.703125 C499.63381022 244.0680069 497.47346438 242.4242973 495.3125 240.78125 C466.14042621 218.67575732 435.71845794 198.30489697 403.875 180.25 C402.47169434 179.44973389 402.47169434 179.44973389 401.04003906 178.63330078 C367.4615995 159.50319669 333.0858324 142.75012805 297.28173828 128.22998047 C295.21160463 127.38705934 293.14927056 126.52879246 291.08984375 125.66015625 C223.43017343 97.61751447 148.42951624 79.72249036 75.51269531 73.57373047 C72.35638172 73.29283974 69.2075328 72.9708065 66.05735779 72.62872314 C21.01822236 67.78877734 -25.08762662 68.84185238 -70.125 73.25 C-70.84619019 73.32025391 -71.56738037 73.39050781 -72.3104248 73.46289062 C-81.57708723 74.3804987 -90.79873003 75.55272902 -100.00805664 76.93286133 C-101.45940464 77.15028735 -102.91108435 77.36550732 -104.36303711 77.57885742 C-184.89273168 89.42470172 -265.23805071 114.72159799 -341.45703125 158.68798828 C-344.08560037 160.22693276 -346.72819439 161.73877543 -349.375 163.24609375 C-376.93009199 179.0696085 -403.39374162 197.30896012 -428.125 217.25 C-429.06601563 218.00796875 -430.00703125 218.7659375 -430.9765625 219.546875 C-440.71722192 227.46291522 -450.3384273 235.52544178 -459.61328125 243.984375 C-461.69518163 245.86229448 -463.79775 247.70817519 -465.9140625 249.546875 C-470.0893245 253.19396174 -474.1540826 256.94714492 -478.1875 260.75 C-478.91630371 261.43707031 -479.64510742 262.12414062 -480.39599609 262.83203125 C-494.31058761 275.9431835 -494.31058761 275.9431835 -507.19921875 290.04296875 C-509.4479372 292.62010044 -511.78790856 295.09924399 -514.13525391 297.58642578 C-519.62661367 303.40562792 -524.93755168 309.27469639 -529.93359375 315.53125 C-531.91248278 317.98634227 -533.94372921 320.38661451 -536.00097656 322.77612305 C-542.49033766 330.3274425 -548.53997067 338.18238873 -554.52832031 346.13427734 C-556.02919486 348.12305087 -557.54022729 350.10359457 -559.0546875 352.08203125 C-572.33273515 369.50088434 -584.69841666 387.56691037 -596.125 406.25 C-596.69009277 407.16910156 -597.25518555 408.08820313 -597.83740234 409.03515625 C-638.31025379 475.02182966 -670.24501443 546.37278568 -690.31640625 621.23583984 C-691.08072906 624.08497313 -691.86629138 626.92741976 -692.65625 629.76953125 C-698.89170676 652.55411627 -704.22672672 675.9426652 -707.55078125 699.33984375 C-708.13188957 703.29691466 -708.85571524 707.20174498 -709.625 711.125 C-724.12026194 787.02406189 -723.83231054 867.70534198 -715.125 944.25 C-715.02106934 945.21115723 -714.91713867 946.17231445 -714.81005859 947.16259766 C-712.89843998 964.66751771 -709.59744009 981.9575998 -706.40112305 999.26374817 C-705.70787725 1003.02480498 -705.02739925 1006.78680835 -704.38769531 1010.55737305 C-702.57352134 1021.23038164 -700.32888619 1031.76893881 -697.875 1042.3125 C-697.6770282 1043.16638306 -697.4790564 1044.02026611 -697.27508545 1044.90002441 C-694.28933649 1057.73572539 -691.06441227 1070.44507568 -687.13085938 1083.02783203 C-686.18934601 1086.04387413 -685.26448277 1089.06468077 -684.34332275 1092.08699036 C-678.77066241 1110.3370678 -672.75173457 1128.39402598 -666.27685547 1146.34448242 C-666.00711914 1147.0974057 -665.73738281 1147.85032898 -665.45947266 1148.62606812 C-664.95730112 1150.02655519 -664.45095071 1151.42555445 -663.93945312 1152.82266235 C-662.58213211 1156.61353023 -661.66088752 1160.25929103 -661.125 1164.25 C-667.66712793 1166.84815073 -674.21020719 1169.44389486 -680.75390625 1172.03808594 C-682.97286817 1172.91808561 -685.19162381 1173.79860565 -687.41015625 1174.6796875 C-699.93883377 1179.6549746 -712.47479943 1184.5910122 -725.125 1189.25 C-730.78530994 1175.48052091 -735.92625636 1161.60430131 -740.6875 1147.5 C-741.01404572 1146.53755371 -741.34059143 1145.57510742 -741.67703247 1144.58349609 C-746.22645779 1131.16383798 -750.58028362 1117.73498031 -754.3359375 1104.06884766 C-755.20143693 1100.97693662 -756.11303541 1097.90087526 -757.03125 1094.82421875 C-760.89131891 1081.80162421 -764.30164694 1068.740718 -767.3125 1055.5 C-767.54717484 1054.46919815 -767.54717484 1054.46919815 -767.78659058 1053.41757202 C-768.74713339 1049.17734082 -769.68169088 1044.93190456 -770.59933472 1040.68218994 C-770.96813957 1038.9757743 -771.33938415 1037.26988499 -771.71243286 1035.56439209 C-775.09034895 1020.07530554 -777.84853543 1004.55331318 -780.1875 988.875 C-780.35864319 987.73879211 -780.52978638 986.60258423 -780.70611572 985.4319458 C-783.87010238 964.30987884 -786.25762378 943.17089285 -787.91015625 921.87930298 C-788.13770871 919.09446816 -788.39809839 916.31377173 -788.66015625 913.53198242 C-790.39445648 894.17473534 -790.43321702 874.86651937 -790.38574219 855.44750977 C-790.3744233 850.77917779 -790.38108765 846.11107578 -790.39261341 841.44275188 C-790.45830244 810.12435937 -789.49016162 778.95176487 -785.9375 747.8125 C-785.83339813 746.8761673 -785.72929626 745.93983459 -785.62203979 744.97512817 C-782.06721298 713.15864944 -777.18930711 681.48257871 -770.125 650.25 C-769.69739721 648.3093602 -769.26979551 646.36872015 -768.84223938 644.42807007 C-758.88297622 599.45270157 -745.39537982 554.97105307 -728.125 512.25 C-727.69541992 511.18023926 -727.26583984 510.11047852 -726.82324219 509.00830078 C-719.7716547 491.50982751 -712.20254687 474.30231573 -704.125 457.25 C-703.5976123 456.12819336 -703.07022461 455.00638672 -702.52685547 453.85058594 C-695.23352839 438.35199188 -687.56098125 423.15790874 -679.125 408.25 C-678.55023926 407.23083496 -677.97547852 406.21166992 -677.38330078 405.16162109 C-666.03019079 385.08849273 -654.17004037 365.2773114 -641.125 346.25 C-640.30320562 345.03918451 -639.48160493 343.82823755 -638.66015625 342.6171875 C-628.59644737 327.83078278 -618.14637812 313.33773928 -607.125 299.25 C-606.23280585 298.09916533 -605.34088637 296.94811768 -604.44921875 295.796875 C-598.65895876 288.34534837 -592.69252135 281.07174467 -586.54736328 273.91064453 C-585.07683 272.19376033 -583.61403077 270.47051318 -582.15234375 268.74609375 C-576.5524027 262.15398727 -570.85646574 255.6758845 -564.97387695 249.33447266 C-563.22125991 247.44250903 -561.48443122 245.53989319 -559.75683594 243.62475586 C-552.43567599 235.52250749 -544.7950528 227.76643203 -537.06274414 220.05737305 C-534.92672643 217.92675366 -532.79615882 215.79078777 -530.66601562 213.65429688 C-529.28417493 212.2731165 -527.90202433 210.89224611 -526.51953125 209.51171875 C-525.89536819 208.88553146 -525.27120514 208.25934418 -524.62812805 207.61418152 C-520.84019215 203.84599598 -516.93562845 200.26410614 -512.8885498 196.7754364 C-510.48178538 194.69363182 -508.14981494 192.53419919 -505.8125 190.375 C-501.34760974 186.30262756 -496.75891845 182.44371402 -492.0546875 178.65234375 C-489.38672204 176.46461207 -486.78036211 174.22471759 -484.18139648 171.95654297 C-476.7689428 165.49983195 -469.05518173 159.56513371 -461.13964844 153.74121094 C-459.16788496 152.28174277 -457.21063026 150.80500939 -455.2578125 149.3203125 C-440.33254766 137.98321393 -425.02697898 127.17657194 -409.125 117.25 C-408.14402344 116.63382813 -407.16304687 116.01765625 -406.15234375 115.3828125 C-369.60238859 92.65109845 -331.787588 72.90962753 -292.125 56.25 C-290.47231336 55.54507418 -288.81992302 54.83945287 -287.16796875 54.1328125 C-277.48788051 50.02644147 -267.63200631 46.49489346 -257.67675781 43.11621094 C-255.19625178 42.27418689 -252.71921475 41.42250533 -250.2421875 40.5703125 C-195.49700806 21.87815653 -139.29551528 9.80409971 -81.81115723 3.54425049 C-79.33246437 3.27272633 -76.85517453 2.99091689 -74.37792969 2.70654297 C-49.64759511 -0.07524297 -24.85267319 -0.00866604 0 0 Z " fill="#1F82CC" transform="translate(1761.125,414.75)"/>
<path d="M0 0 C11.53076822 78.77467344 20.01066206 157.89259652 23.75 237.4375 C23.80916595 238.69525238 23.86833191 239.95300476 23.92929077 241.24887085 C24.26905517 248.6082101 24.57782756 255.96830982 24.85925293 263.33010864 C24.95161267 265.7383309 25.04697147 268.1464404 25.14562988 270.55441284 C26.29637143 299.08292998 26.24301728 327.63074497 26.24943876 356.17807817 C26.25000328 358.19924357 26.25107072 360.2204082 26.2522316 362.24157333 C26.27331236 404.14774155 25.74924594 445.9421018 23.19274902 487.77874756 C23.01387141 490.76817882 22.84906638 493.75786858 22.69238281 496.74853516 C21.27672991 523.76907415 18.61055854 550.69274658 16.0625 577.625 C15.97734257 578.52729591 15.89218513 579.42959183 15.80444717 580.35923004 C12.72682031 612.94344371 9.30259673 645.43952903 4.4375 677.8125 C3.99689886 680.77843236 3.55773295 683.74457512 3.11859131 686.71072388 C2.830876 688.65119754 2.54219532 690.59152834 2.25250244 692.53170776 C1.42521266 698.07979629 0.62723229 703.63107241 -0.14820862 709.18663025 C-1.58042685 719.4202665 -3.26661257 729.5858535 -5.125 739.75 C-5.65202792 742.63998743 -6.17601805 745.53048758 -6.6953125 748.421875 C-6.81787415 749.10310425 -6.94043579 749.7843335 -7.06671143 750.48620605 C-7.667242 753.88735361 -8.17768773 757.26396827 -8.4921875 760.703125 C-8.94119743 765.36380409 -10.08641659 769.81919656 -11.17480469 774.36621094 C-12.05699469 778.25097896 -12.80537647 782.15008906 -13.5078125 786.0703125 C-13.63604904 786.78565659 -13.76428558 787.50100067 -13.89640808 788.23802185 C-14.16567392 789.74536791 -14.434392 791.25281191 -14.7026062 792.76034546 C-21.96344813 833.40815537 -31.04687899 873.68596737 -40.75 913.8125 C-40.93481934 914.57955261 -41.11963867 915.34660522 -41.31005859 916.13690186 C-43.38413453 924.72774483 -45.60099886 933.24514238 -48.07128906 941.73266602 C-49.5145534 946.81027028 -50.75474062 951.933469 -52 957.0625 C-53.76446931 964.22484879 -55.62335386 971.29736136 -57.88671875 978.3203125 C-59.14736973 982.48709576 -60.25690275 986.68245713 -61.36547852 990.8918457 C-64.56304366 1003.03164934 -68.13849618 1014.98444473 -72.03125 1026.91796875 C-73.93402237 1032.75542911 -75.72763503 1038.62189487 -77.5 1044.5 C-83.75923695 1065.23675222 -90.52726845 1085.80587371 -97.5 1106.3125 C-98.08009323 1108.01919861 -98.08009323 1108.01919861 -98.67190552 1109.76037598 C-116.8457131 1163.15123311 -136.86110848 1215.82652293 -159.01556396 1267.69512939 C-159.94622792 1269.87410285 -160.87494697 1272.053895 -161.80322266 1274.23388672 C-170.21550402 1293.96778508 -179.02892082 1313.51504459 -188 1333 C-188.29455078 1333.64001953 -188.58910156 1334.28003906 -188.89257812 1334.93945312 C-208.8705396 1378.32144074 -229.26416911 1421.93187495 -252.89794922 1463.4543457 C-254.96857018 1467.10706053 -256.91942866 1470.78149849 -258.75 1474.5625 C-262.63560604 1482.48315847 -267.08966942 1490.09040435 -271.453125 1497.75390625 C-274.34782652 1502.8386989 -277.20204027 1507.94477852 -280.04418945 1513.05908203 C-297.72225859 1544.83254593 -316.54841981 1575.95589662 -335.93164062 1606.71484375 C-337.50236938 1609.20961785 -339.0679701 1611.70735495 -340.63085938 1614.20703125 C-348.17050819 1626.23849422 -355.97279873 1638.07927531 -363.875 1649.875 C-365.05100493 1651.63396505 -366.22678649 1653.39307947 -367.40234375 1655.15234375 C-369.7490148 1658.6638568 -372.09733178 1662.17426143 -374.4465332 1665.68408203 C-376.86984442 1669.30641806 -379.28712896 1672.93268083 -381.69995117 1676.56201172 C-387.90425744 1685.89318445 -394.13177655 1695.19775247 -400.5625 1704.375 C-401.54959961 1705.79039062 -401.54959961 1705.79039062 -402.55664062 1707.234375 C-406.00806745 1712.17784291 -409.48481221 1717.10167691 -413 1722 C-418.185968 1721.56619279 -421.19726095 1718.86473273 -425.125 1715.75 C-431.14111478 1711.10338446 -437.26225662 1706.69083425 -443.5625 1702.4375 C-449.61073513 1698.34102211 -455.60458821 1694.18919448 -461.5 1689.875 C-462.11689697 1689.42568115 -462.73379395 1688.9763623 -463.36938477 1688.51342773 C-466.11148959 1686.49188734 -468.63085847 1684.44372561 -471 1682 C-470.6596875 1681.5145874 -470.319375 1681.0291748 -469.96875 1680.52905273 C-467.00093098 1676.29487876 -464.0361441 1672.05861169 -461.07421875 1667.8203125 C-458.54570204 1664.20335351 -456.00730382 1660.59383188 -453.45703125 1656.9921875 C-429.39589405 1622.87608978 -406.79002872 1587.60275287 -385 1552 C-384.35981934 1550.95537598 -383.71963867 1549.91075195 -383.06005859 1548.83447266 C-372.15356221 1531.01749537 -361.47079307 1513.0764802 -351 1495 C-350.65455139 1494.40362732 -350.30910278 1493.80725464 -349.95318604 1493.19281006 C-340.88777668 1477.5300415 -332.06860627 1461.74844121 -323.51171875 1445.80126953 C-322.06389757 1443.11840452 -320.59887639 1440.44596858 -319.125 1437.77734375 C-305.28750151 1412.71283862 -292.49696301 1387.09778288 -279.66427612 1361.50933075 C-278.76952464 1359.72640575 -277.87318325 1357.94427892 -276.97680664 1356.16217041 C-268.31049684 1338.92163567 -260.02518588 1321.54664808 -252 1304 C-251.37381775 1302.63408218 -251.37381775 1302.63408218 -250.73498535 1301.24057007 C-227.22617671 1249.92979946 -205.39820095 1197.81978982 -186.10697937 1144.77082825 C-184.58684992 1140.59238034 -183.03835882 1136.42582642 -181.46875 1132.265625 C-175.09586161 1115.28938769 -169.24058674 1098.13946691 -163.41762161 1080.96865845 C-162.97671406 1079.66852622 -162.53562416 1078.36845581 -162.09434128 1077.06845093 C-154.49555231 1054.68234445 -147.17109315 1032.24282337 -140.5 1009.5625 C-139.54295698 1006.31732637 -138.58443924 1003.07259095 -137.625 999.828125 C-137.3942981 999.04754227 -137.16359619 998.26695953 -136.92590332 997.46272278 C-135.42925208 992.41172757 -133.87924507 987.37989828 -132.29711914 982.35498047 C-127.26326307 966.29906098 -123.21115751 949.9649918 -118.99995422 933.67907715 C-117.63055106 928.39435271 -116.23410336 923.11823552 -114.796875 917.8515625 C-110.2634846 901.21926869 -106.26371536 884.51555014 -102.50457764 867.69546509 C-101.34734814 862.52337649 -100.16381305 857.35787452 -98.96484375 852.1953125 C-92.9897637 826.43487997 -87.32262523 800.61735576 -82.9453125 774.53125 C-82.14109672 769.75674792 -81.25643012 765.00065701 -80.35253906 760.24414062 C-73.10984201 721.99988293 -67.33568128 683.57621748 -62.3828125 644.97387695 C-62.01772897 642.13772739 -61.6484924 639.30215844 -61.27734375 636.46679688 C-53.61504313 577.8891471 -48.8239505 519.00401678 -46 460 C-45.94672546 458.90234314 -45.89345093 457.80468628 -45.83856201 456.67376709 C-42.2381058 381.56061101 -42.57318773 306.06521942 -47 231 C-47.07496704 229.7043512 -47.14993408 228.40870239 -47.22717285 227.0737915 C-49.2392372 192.39517516 -52.04209938 157.81460637 -55.65820312 123.26696777 C-56.00624985 119.94026255 -56.35082946 116.61320875 -56.6953125 113.28613281 C-59.51304793 86.20156344 -62.76463637 59.21993841 -66.81591797 32.2902832 C-67.03489746 30.82090302 -67.03489746 30.82090302 -67.25830078 29.32183838 C-67.52939091 27.50898202 -67.80491148 25.69677972 -68.0859375 23.88543701 C-68.78798957 19.19554692 -69.1346671 14.74243334 -69 10 C-61.44571793 8.84252816 -53.89125451 7.68624635 -46.33656311 6.53144932 C-42.82796532 5.99509363 -39.31942927 5.45834079 -35.81103516 4.9206543 C-31.77004127 4.30136142 -27.72877793 3.68384287 -23.6875 3.06640625 C-22.4382373 2.87470352 -21.18897461 2.68300079 -19.90185547 2.48548889 C-3.60960051 0 -3.60960051 0 0 0 Z " fill="#00DBFE" transform="translate(2445,742)"/>
<path d="M0 0 C3.35234553 1.25699199 6.2972207 2.68531196 9.30859375 4.6171875 C10.12634277 5.13547119 10.9440918 5.65375488 11.78662109 6.18774414 C12.66141113 6.74453857 13.53620117 7.30133301 14.4375 7.875 C24.48263866 14.17489465 34.73698155 19.95878981 45.20849609 25.51611328 C47.99570926 26.99771916 50.77330741 28.4963262 53.55078125 29.99609375 C122.27982281 66.81522316 199.33065173 88.87237754 408 96 C408.67949707 95.9104303 409.35899414 95.8208606 410.05908203 95.72857666 C420.4075131 94.355649 430.7082072 92.74419357 441 91 C442.18529297 90.80148438 443.37058594 90.60296875 444.59179688 90.3984375 C472.34619444 85.69164311 499.23794199 78.68481178 526 70 C528.02202977 69.35643882 530.04416033 68.71319417 532.06640625 68.0703125 C558.51757139 59.56238188 584.01399105 49.13647307 609 37 C610.1230957 36.45698242 611.24619141 35.91396484 612.40332031 35.35449219 C630.4592763 26.58951557 648.41195811 17.40934886 665.0390625 6.109375 C667 5 667 5 670 5 C671.34350586 6.6262207 671.34350586 6.6262207 672.71484375 8.92578125 C673.22998535 9.7755957 673.74512695 10.62541016 674.27587891 11.50097656 C675.09838135 12.89268066 675.09838135 12.89268066 675.9375 14.3125 C677.10983798 16.25180958 678.28303299 18.1906013 679.45703125 20.12890625 C680.0495166 21.11391113 680.64200195 22.09891602 681.25244141 23.11376953 C683.82335569 27.35983668 686.46774462 31.55760698 689.125 35.75 C689.60928467 36.51731445 690.09356934 37.28462891 690.5925293 38.07519531 C693.09717334 42.03478286 695.62892381 45.97465759 698.1953125 49.89453125 C698.70819824 50.67924805 699.22108398 51.46396484 699.74951172 52.27246094 C700.7286407 53.76680358 701.71185882 55.25847722 702.69970703 56.74707031 C706 61.78017016 706 61.78017016 706 64 C704.26611328 65.26171875 704.26611328 65.26171875 701.8203125 66.6875 C700.92094971 67.21593506 700.02158691 67.74437012 699.0949707 68.28881836 C698.11488037 68.8535083 697.13479004 69.41819824 696.125 70 C695.11848389 70.58595947 694.11196777 71.17191895 693.07495117 71.77563477 C690.0557087 73.52728734 687.02949807 75.26615562 684 77 C683.2167334 77.44972168 682.4334668 77.89944336 681.62646484 78.36279297 C676.45817616 81.31794871 671.24356215 84.18078358 666 87 C665.0409375 87.51643066 664.081875 88.03286133 663.09375 88.56494141 C608.58384998 117.75328943 549.54500539 140.23586237 489.07763672 153.32958984 C486.19431599 153.95767161 483.31781372 154.61064341 480.44140625 155.26953125 C461.15586951 159.58774785 441.55835091 162.24604362 422 165 C421.30267761 165.09846222 420.60535522 165.19692444 419.88690186 165.29837036 C411.68762435 166.44841527 403.50334315 167.4070204 395.25 168.0625 C394.3321875 168.14048828 393.414375 168.21847656 392.46875 168.29882812 C374.52003991 169.76625645 356.62977023 170.20216067 338.625 170.1875 C337.48102753 170.18756042 336.33705505 170.18762085 335.15841675 170.18768311 C317.67377763 170.1745518 300.41211003 169.66083829 283 168 C281.23065787 167.85188982 279.46113115 167.70596428 277.69140625 167.5625 C190.65985849 160.23703257 106.34070833 135.30019723 -4 79 C-4.70866211 78.59475098 -5.41732422 78.18950195 -6.14746094 77.77197266 C-14.06386602 73.24149987 -21.86523251 68.5549229 -29.5 63.5625 C-30.14155029 63.14935547 -30.78310059 62.73621094 -31.4440918 62.31054688 C-35.88131258 59.35606227 -35.88131258 59.35606227 -37 56 C-35.7265625 53.55859375 -35.7265625 53.55859375 -33.625 50.4375 C-32.79272674 49.18505662 -31.96071927 47.9324366 -31.12890625 46.6796875 C-30.4021167 45.5963916 -30.4021167 45.5963916 -29.66064453 44.49121094 C-27.00512733 40.50754473 -24.40121147 36.4903822 -21.78857422 32.47851562 C-16.22820255 23.9414164 -10.64332672 15.42002253 -5 6.9375 C-4.59724854 6.33107666 -4.19449707 5.72465332 -3.77954102 5.09985352 C-1.12407437 1.12407437 -1.12407437 1.12407437 0 0 Z " fill="#1F82CC" transform="translate(1374,2595)"/>
<path d="M0 0 C35.55733859 4.2129211 70.58098142 17.85906526 102.25 34.125 C103.34465576 34.68670898 104.43931152 35.24841797 105.56713867 35.82714844 C116.01635821 41.31775429 125.70906442 47.83538209 135.125 54.9375 C135.80240234 55.44692139 136.47980469 55.95634277 137.17773438 56.48120117 C141.94625829 60.10702947 146.47106222 63.92151653 150.85546875 68.0078125 C152.79217432 69.80693789 154.78148736 71.49709196 156.8125 73.1875 C183.36752003 96.48325197 201.02115462 129.0571121 215 161 C218.54435746 156.89982285 220.97347177 152.56358303 223.5 147.8125 C231.3723815 133.35559459 240.60342367 119.76086988 251 107 C251.4424707 106.45456543 251.88494141 105.90913086 252.34082031 105.34716797 C263.54179042 91.64788423 275.91306776 78.74752324 290 68 C291.16432992 67.08367303 292.32837364 66.16698232 293.4921875 65.25 C325.16819959 40.59275745 379.30947438 7 421 7 C423.67880169 15.45531013 426.09496223 23.93214593 428.234375 32.5390625 C428.51726379 33.6677475 428.80015259 34.7964325 429.09161377 35.95932007 C429.68146079 38.31668548 430.26956099 40.67448863 430.85595703 43.03271484 C431.75673596 46.65206523 432.66513772 50.26944575 433.57421875 53.88671875 C434.14889084 56.18738681 434.72312568 58.48816414 435.296875 60.7890625 C435.56868591 61.87023346 435.84049683 62.95140442 436.12054443 64.06533813 C436.36790344 65.06423065 436.61526245 66.06312317 436.87011719 67.09228516 C437.08899597 67.97018707 437.30787476 68.84808899 437.53338623 69.75259399 C438 72 438 72 438 75 C437.34217529 75.17539307 436.68435059 75.35078613 436.0065918 75.53149414 C396.19273345 86.21984797 358.4404674 101.69519946 327 129 C326.00355469 129.86238281 325.00710938 130.72476563 323.98046875 131.61328125 C317.26129623 137.53761065 311.47429578 143.9008249 306 151 C305.18789062 152.00804688 304.37578125 153.01609375 303.5390625 154.0546875 C297.69848979 161.35681198 292.79679241 168.98639677 288.12207031 177.07519531 C286.60370876 179.67979985 285.03879807 182.25511808 283.47485352 184.83251953 C280.54340025 189.66840148 277.67601468 194.5165677 275 199.5 C263.31397817 221.1336272 250.82433115 238.91444999 227 248 C211.81192587 251.70440832 197.05374139 247.90214846 184 240 C173.30284296 232.37430389 165.88560793 221.26267384 160.1875 209.59375 C159.67846634 208.56374123 159.67846634 208.56374123 159.15914917 207.51292419 C156.04620762 201.17629109 153.07464978 194.77519463 150.11547852 188.36572266 C139.81747718 166.06821402 129.02550127 146.01164615 112 128 C111.25363281 127.18917969 110.50726562 126.37835937 109.73828125 125.54296875 C89.88438904 104.70458602 62.54733314 91.97350436 36 82 C34.44236938 81.40566162 34.44236938 81.40566162 32.85327148 80.79931641 C23.80249985 77.44049311 14.68828631 74.9999301 5.3125 72.75 C3.15447139 72.22491108 0.99696048 71.69775089 -1.16035461 71.16973877 C-3.08741536 70.69917592 -5.01571809 70.23370774 -6.9440918 69.76855469 C-10 69 -10 69 -13 68 C-8.87522057 45.29248263 -4.4476483 22.64603928 0 0 Z " fill="#01DBFE" transform="translate(1491,2778)"/>
</svg>
